{"title":"Utvandrarna &amp; Nybyggarna.DvDRiP.XViD.Optional.NordicSub.Zen_Bud","uid":5788391,"size":4581962711,"categoryP":"video","categoryS":"movies","magnet":"?xt=urn:btih:8af3395fd64c51a0b0748db463afb74e8f33f3e5&amp;dn=Utvandrarna+%26+Nybyggarna.DvDRiP.XViD.Optional.NordicSub.Zen_Bud&amp;tr=udp%3A%2F%2Ftracker.openbittorrent.com%3A80&amp;tr=udp%3A%2F%2Fopen.demonii.com%3A1337&amp;tr=udp%3A%2F%2Ftracker.coppersurfer.tk%3A6969&amp;tr=udp%3A%2F%2Fexodus.desync.com%3A6969","seeders":0,"leechers":1,"uploader":"Zen_Bud","files":-1,"time":1282696042,"description":"\nUtvandrarna.1971.DvDRiP.XViD.Optional.NordicSub.Zen_Bud.avi\n\nFormat                           : AVI\nFile size                        : 2.07 GiB\nDuration                         : 3h 3mn\nOverall bit rate                 : 1 616 Kbps\n\nVideo\n\nFormat                           : MPEG-4 Visual\nCodec ID/Hint                    : XviD\nDuration                         : 3h 3mn\nBit rate                         : 1 491 Kbps\nWidth                            : 672 pixels\nHeight                           : 576 pixels\nDisplay aspect ratio             : 1.659\nStream size                      : 1.91 GiB (92%)\nWriting library                  : XviD 1.1.2 (UTC 2006-11-01)\n\nAudio\n\nFormat                           : MPEG Audio\nCodec ID/Hint                    : MP3\nDuration                         : 3h 3mn\nBit rate                         : 112 Kbps\nChannel(s)                       : 2 channels\nSampling rate                    : 48.0 KHz\nStream size                      : 147 MiB (7%)\n\n &lt;a href=&quot;\nhttp://sv.wikipedia.org/wiki/Utvandrarna_%28film%29&quot; rel=&quot;nofollow&quot; target=&quot;_NEW&quot;&gt;\nhttp://sv.wikipedia.org/wiki/Utvandrarna_%28film%29&lt;/a&gt;\n &lt;a href=&quot;\nhttp://www.imdb.com/title/tt0067919/&quot; rel=&quot;nofollow&quot; target=&quot;_NEW&quot;&gt;\nhttp://www.imdb.com/title/tt0067919/&lt;/a&gt;\n\n**************************************************************\n\n\nNybyggarna.1972.DvDRiP.XViD.Optional NordicSub.Zen_Bud.avi\n\nFormat                           : AVI\nFile size                        : 2.16 GiB\nDuration                         : 3h 12mn\nOverall bit rate                 : 1 609 Kbps\n\nVideo\n\nFormat                           : MPEG-4 Visual\nCodec ID/Hint                    : XviD\nDuration                         : 3h 12mn\nBit rate                         : 1 484 Kbps\nWidth                            : 672 pixels\nHeight                           : 576 pixels\nDisplay aspect ratio             : 1.659\nStream size                      : 1.99 GiB (92%)\nWriting library                  : XviD 1.1.2 (UTC 2006-11-01)\n\nAudio\n\nFormat                           : MPEG Audio\nCodec ID/Hint                    : MP3\nDuration                         : 3h 12mn\nBit rate                         : 112 Kbps\nChannel(s)                       : 2 channels\nSampling rate                    : 48.0 KHz\nStream size                      : 154 MiB (7%)\n\n &lt;a href=&quot;\nhttp://sv.wikipedia.org/wiki/Nybyggarna_%28film%29&quot; rel=&quot;nofollow&quot; target=&quot;_NEW&quot;&gt;\nhttp://sv.wikipedia.org/wiki/Nybyggarna_%28film%29&lt;/a&gt;\n &lt;a href=&quot;\nhttp://www.imdb.com/title/tt0069035/&quot; rel=&quot;nofollow&quot; target=&quot;_NEW&quot;&gt;\nhttp://www.imdb.com/title/tt0069035/&lt;/a&gt;","torrent":{"xt":"urn:btih:8af3395fd64c51a0b0748db463afb74e8f33f3e5","amp;dn":"Utvandrarna+%26+Nybyggarna.DvDRiP.XViD.Optional.NordicSub.Zen_Bud","amp;tr":["udp%3A%2F%2Ftracker.openbittorrent.com%3A80","udp%3A%2F%2Fopen.demonii.com%3A1337","udp%3A%2F%2Ftracker.coppersurfer.tk%3A6969","udp%3A%2F%2Fexodus.desync.com%3A6969"],"infoHash":"8af3395fd64c51a0b0748db463afb74e8f33f3e5","infoHashBuffer":{"type":"Buffer","data":[138,243,57,95,214,76,81,160,176,116,141,180,99,175,183,78,143,51,243,229]},"announce":[],"urlList":[]}}